<svg width="30" height="30" viewBox="0 0 30 30" fill="none" xmlns="http://www.w3.org/2000/svg">
<rect y="0" width="30" height="30" rx="2" fill="url(#paint0_linear_406_2)"/>
<path fill-rule="evenodd" clip-rule="evenodd" d="M0 28V29C0 30.1046 0.75 30 1.5 31V30C0.671572 30 0 29.1046 0 28ZM1.5 31H28.5C29.25 30 30 30.1046 30 29V28C30 29.1046 29.3284 30 28.5 30H1.5V31Z" fill="#031C5A" fill-opacity="0.1"/>
<path d="M15.3596 20.928C13.7276 20.928 12.5036 20.424 11.6876 19.416C10.8876 18.408 10.4876 17.08 10.4876 15.432C10.4876 14.36 10.6796 13.416 11.0636 12.6C11.4476 11.768 12.0076 11.12 12.7436 10.656C13.4796 10.176 14.3836 9.936 15.4556 9.936C15.9516 9.936 16.4556 10 16.9676 10.128C17.4796 10.256 17.9596 10.432 18.4076 10.656L17.7116 12.264C17.3116 12.056 16.9196 11.904 16.5356 11.808C16.1676 11.696 15.8156 11.64 15.4796 11.64C14.5356 11.64 13.7996 11.976 13.2716 12.648C12.7596 13.32 12.5036 14.248 12.5036 15.432C12.5036 16.248 12.5996 16.944 12.7916 17.52C12.9996 18.08 13.3196 18.512 13.7516 18.816C14.1836 19.104 14.7516 19.248 15.4556 19.248C15.8236 19.248 16.2316 19.2 16.6796 19.104C17.1436 18.992 17.5756 18.856 17.9756 18.696V20.352C17.5916 20.512 17.1996 20.648 16.7996 20.76C16.3996 20.872 15.9196 20.928 15.3596 20.928ZM14.9996 24.24C13.7196 24.24 12.5436 24.024 11.4716 23.592C10.3996 23.16 9.46363 22.552 8.66363 21.768C7.87963 20.968 7.27163 20.032 6.83963 18.96C6.40763 17.888 6.19163 16.712 6.19163 15.432C6.19163 14.216 6.40763 13.08 6.83963 12.024C7.28763 10.952 7.91163 10.016 8.71163 9.216C9.51163 8.4 10.4476 7.768 11.5196 7.32C12.5916 6.856 13.7516 6.624 14.9996 6.624C16.2156 6.624 17.3516 6.84 18.4076 7.272C19.4796 7.704 20.4156 8.32 21.2156 9.12C22.0316 9.904 22.6636 10.832 23.1116 11.904C23.5756 12.976 23.8076 14.152 23.8076 15.432C23.8076 16.712 23.5916 17.888 23.1596 18.96C22.7276 20.032 22.1116 20.968 21.3116 21.768C20.5276 22.552 19.5996 23.16 18.5276 23.592C17.4556 24.024 16.2796 24.24 14.9996 24.24ZM14.9996 22.704C15.9916 22.704 16.9116 22.528 17.7596 22.176C18.6236 21.808 19.3836 21.304 20.0396 20.664C20.6956 20.008 21.2076 19.24 21.5756 18.36C21.9436 17.464 22.1276 16.488 22.1276 15.432C22.1276 14.424 21.9436 13.48 21.5756 12.6C21.2236 11.72 20.7276 10.944 20.0876 10.272C19.4476 9.6 18.6876 9.08 17.8076 8.712C16.9436 8.328 16.0076 8.136 14.9996 8.136C13.9756 8.136 13.0236 8.32 12.1436 8.688C11.2796 9.04 10.5196 9.544 9.86363 10.2C9.22363 10.84 8.71963 11.608 8.35163 12.504C7.99963 13.4 7.82363 14.376 7.82363 15.432C7.82363 16.488 7.99963 17.464 8.35163 18.36C8.70363 19.24 9.19963 20.008 9.83963 20.664C10.4796 21.304 11.2316 21.808 12.0956 22.176C12.9756 22.528 13.9436 22.704 14.9996 22.704Z" fill="#FCFCFC"/>
<defs>
<linearGradient id="paint0_linear_406_2" x1="0" y1="0" x2="22.5" y2="30" gradientUnits="userSpaceOnUse">
<stop stop-color="#219CDE"/>
<stop offset="1" stop-color="#1E93D2"/>
</linearGradient>
</defs>
</svg>
